<?xml version="1.0" standalone="no"?>
<!DOCTYPE svg PUBLIC "-//W3C//DTD SVG 20010904//EN"
 "http://www.w3.org/TR/2001/REC-SVG-20010904/DTD/svg10.dtd">
<svg version="1.0" xmlns="http://www.w3.org/2000/svg"
 width="147.000000pt" height="32.000000pt" viewBox="0 0 147.000000 32.000000"
 preserveAspectRatio="xMidYMid meet">

<g transform="translate(0.000000,32.000000) scale(0.100000,-0.100000)"
fill="#000000" stroke="none">
<path d="M102 230 c-62 -58 -25 -160 59 -160 20 0 47 8 59 18 20 16 20 19 7
31 -12 9 -21 10 -37 1 -26 -14 -57 -5 -65 21 -14 44 23 81 62 60 12 -6 25 -6
36 1 18 9 18 11 1 29 -24 26 -93 26 -122 -1z"/>
<path d="M290 160 c0 -89 0 -90 24 -90 22 0 25 5 28 42 l3 42 28 -42 c22 -34
33 -42 58 -42 l30 0 -21 30 c-19 27 -20 31 -6 46 9 8 16 28 16 44 0 41 -32 60
-102 60 l-58 0 0 -90z m105 25 c0 -14 -8 -21 -27 -23 -24 -3 -28 0 -28 23 0
23 4 26 28 23 19 -2 27 -9 27 -23z"/>
<path d="M500 230 c0 -18 7 -20 85 -20 78 0 85 2 85 20 0 18 -7 20 -85 20 -78
0 -85 -2 -85 -20z"/>
<path d="M805 193 c19 -47 28 -59 49 -61 14 -2 26 -1 26 1 0 3 -11 30 -25 61
-20 46 -29 56 -49 56 l-25 0 24 -57z"/>
<path d="M920 230 c0 -15 7 -20 25 -20 24 0 25 -2 25 -70 0 -68 1 -70 25 -70
24 0 25 2 25 70 0 68 1 70 25 70 18 0 25 5 25 20 0 18 -7 20 -75 20 -68 0 -75
-2 -75 -20z"/>
<path d="M1140 160 c0 -89 0 -90 25 -90 25 0 25 1 25 90 0 89 0 90 -25 90 -25
0 -25 -1 -25 -90z"/>
<path d="M1276 237 c-17 -13 -26 -61 -13 -73 3 -3 23 -12 43 -19 21 -7 40 -18
42 -24 5 -14 -33 -14 -58 -1 -13 7 -21 5 -31 -6 -19 -23 13 -44 67 -44 48 0
74 19 74 54 0 27 -18 44 -56 55 -15 4 -30 13 -32 20 -4 11 4 12 30 7 44 -8 72
16 39 33 -27 15 -83 14 -105 -2z"/>
<path d="M745 164 c-15 -38 -29 -75 -32 -81 -3 -8 4 -13 20 -13 20 0 28 9 45
50 18 44 19 54 8 81 l-13 31 -28 -68z"/>
<path d="M500 160 c0 -18 7 -20 85 -20 78 0 85 2 85 20 0 18 -7 20 -85 20 -78
0 -85 -2 -85 -20z"/>
<path d="M500 90 c0 -18 7 -20 85 -20 78 0 85 2 85 20 0 18 -7 20 -85 20 -78
0 -85 -2 -85 -20z"/>
</g>
</svg>
